<svg xmlns="http://www.w3.org/2000/svg" width="14" height="14" viewBox="0 0 14 14">
  <g id="更多操作" transform="translate(1162 -241)">
    <g id="组_816" data-name="组 816" transform="translate(-1159.667 247.067)">
      <path id="路径_16" data-name="路径 16" d="M455.354,455.354m-.955,0a.955.955,0,1,0,.955-.955A.954.954,0,0,0,454.4,455.354Z" transform="translate(-450.688 -454.4)" fill="#aaa"/>
      <path id="路径_17" data-name="路径 17" d="M679.355,455.354m-.955,0a.955.955,0,1,0,.955-.955A.955.955,0,0,0,678.4,455.354Z" transform="translate(-670.976 -454.4)" fill="#aaa"/>
      <path id="路径_18" data-name="路径 18" d="M231.355,455.354m-.955,0a.955.955,0,1,0,.955-.955A.955.955,0,0,0,230.4,455.354Z" transform="translate(-230.4 -454.4)" fill="#aaa"/>
    </g>
    <path id="路径_23" data-name="路径 23" d="M124.333,131.333a7,7,0,1,1,7-7A7.008,7.008,0,0,1,124.333,131.333Zm0-12.865a5.865,5.865,0,1,0,5.865,5.865A5.87,5.87,0,0,0,124.333,118.468Z" transform="translate(-1279.333 123.667)" fill="#aaa"/>
  </g>
</svg>
